<svg xmlns="http://www.w3.org/2000/svg" viewBox="0 0 174.9 165.17"><g id="Layer_2" data-name="Layer 2"><g id="Layer_1-2" data-name="Layer 1"><path d="M5.23,54.45c9-15.08,20.48-29.23,35.58-38.54C54.76,7.31,72.12,3.12,88.28,7.07a44,44,0,0,1,11.47,4.39c3.3,1.89,6.48,4.65,6.4,8.76s-2.31,7.81-4.29,11.14a66.62,66.62,0,0,1-6.77,9.33C84.34,53.09,70.28,62,57.39,71.92s-29,23.2-28.32,41.2c.34,8.43,4.51,16.61,12.42,20.23,6.85,3.12,14.63,2.36,21.61,0,7.88-2.61,14.83-6.95,21.65-11.58q12.75-8.67,24.59-18.57C116.62,97.16,123.6,90.54,132,86c7-3.83,14.64-5.69,22.35-3.77a23.89,23.89,0,0,1,9,4.25,18.83,18.83,0,0,1,3.24,3.38,14.3,14.3,0,0,1,2.07,4.21c2.28,7.87-2.15,15.72-6.76,21.8-5.26,6.92-11.65,13-15.18,21-3,6.77-3.05,15.23,1.06,21.59a15.59,15.59,0,0,0,8.34,6.55c3.46,1.11,5.06-4.29,1.61-5.4a10.16,10.16,0,0,1-6.08-5.79,18.6,18.6,0,0,1-1.29-4.62,20.48,20.48,0,0,1,0-4.77c.86-7.66,7.1-14.49,12-20.32,5.66-6.71,11.17-14,12.36-22.94,1.08-8.14-2.79-15.69-9.44-20.25-6.39-4.39-14.61-5.84-22.2-4.79-9.38,1.3-17.77,6.8-25.06,12.52-7.85,6.15-15.2,12.9-23.14,19-7.46,5.69-15.18,11.4-23.4,15.94-6.22,3.42-13.28,6.33-20.25,6.25a16.86,16.86,0,0,1-9-2.46,15.69,15.69,0,0,1-6.38-8.19C30.08,102,46.37,87.8,58.28,78.34c12.89-10.26,27.14-19,38.49-31.12,5.65-6,11-13.1,13.84-21,1.61-4.49,1.71-9.56-1.11-13.62-2.64-3.8-6.68-6.13-10.83-8-16-7.07-34.47-5.61-50.32,1-16.73,7-30.21,20.14-40.65,34.68C5.11,44,2.7,47.71.42,51.53c-1.86,3.11,3,6,4.81,2.92Z" style="fill:#bf8dd1"/></g></g></svg>